<svg xmlns="http://www.w3.org/2000/svg" version="1.1" xmlns:xlink="http://www.w3.org/1999/xlink" xmlns:svgjs="http://svgjs.dev/svgjs" width="1340" height="330" preserveAspectRatio="none" viewBox="0 0 1340 330"><g mask="url(&quot;#SvgjsMask7133&quot;)" fill="none"><rect width="1340" height="330" x="0" y="0" fill="#0e2a47"></rect><path d="M791.37 227.53L792.56 240.28 780.38 244.24 781.58 256.99 769.4 260.95 770.59 273.7 758.41 277.67" stroke="#037b0b" stroke-width="1.44" stroke-dasharray="4, 4"></path><rect width="82" height="82" clip-path="url(&quot;#SvgjsClipPath7134&quot;)" x="123.7" y="-25.23" fill="url(&quot;#SvgjsPattern7135&quot;)" transform="rotate(160.66, 164.7, 15.77)"></rect><path d="M991.0799999999999 126.46000000000001 L1016.03 89.06L1022.7468508329811 126.95185083298115z" fill="#e73635"></path><path d="M1296.14 9.71a5.6 5.6 0 1 0 9.27-6.29 5.6 5.6 0 1 0-9.27 6.29zM1309.38 0.72a5.6 5.6 0 1 0 9.26-6.3 5.6 5.6 0 1 0-9.26 6.3zM1322.61-8.27a5.6 5.6 0 1 0 9.26-6.3 5.6 5.6 0 1 0-9.26 6.3zM1335.85-17.26a5.6 5.6 0 1 0 9.26-6.3 5.6 5.6 0 1 0-9.26 6.3zM1278.66 40.93a5.6 5.6 0 1 0 9.27-6.3 5.6 5.6 0 1 0-9.27 6.3zM1291.9 31.94a5.6 5.6 0 1 0 9.26-6.3 5.6 5.6 0 1 0-9.26 6.3zM1305.13 22.94a5.6 5.6 0 1 0 9.27-6.29 5.6 5.6 0 1 0-9.27 6.29zM1318.37 13.95a5.6 5.6 0 1 0 9.26-6.29 5.6 5.6 0 1 0-9.26 6.29zM1261.18 72.14a5.6 5.6 0 1 0 9.27-6.29 5.6 5.6 0 1 0-9.27 6.29zM1274.42 63.15a5.6 5.6 0 1 0 9.26-6.29 5.6 5.6 0 1 0-9.26 6.29zM1287.65 54.16a5.6 5.6 0 1 0 9.27-6.29 5.6 5.6 0 1 0-9.27 6.29zM1300.89 45.17a5.6 5.6 0 1 0 9.26-6.29 5.6 5.6 0 1 0-9.26 6.29z" fill="#e73635"></path><rect width="100.19999999999999" height="100.19999999999999" clip-path="url(&quot;#SvgjsClipPath7136&quot;)" x="1115.68" y="206.46" fill="url(&quot;#SvgjsPattern7137&quot;)" transform="rotate(49.94, 1165.78, 256.56)"></rect><path d="M451 62.79a5.6 5.6 0 1 0-9.52-5.92 5.6 5.6 0 1 0 9.52 5.92zM437.41 54.34a5.6 5.6 0 1 0-9.51-5.92 5.6 5.6 0 1 0 9.51 5.92zM423.82 45.89a5.6 5.6 0 1 0-9.51-5.92 5.6 5.6 0 1 0 9.51 5.92zM410.24 37.44a5.6 5.6 0 1 0-9.51-5.92 5.6 5.6 0 1 0 9.51 5.92zM486.62 66.1a5.6 5.6 0 1 0-9.51-5.91 5.6 5.6 0 1 0 9.51 5.91zM473.03 57.65a5.6 5.6 0 1 0-9.51-5.91 5.6 5.6 0 1 0 9.51 5.91zM459.45 49.2a5.6 5.6 0 1 0-9.51-5.91 5.6 5.6 0 1 0 9.51 5.91zM445.86 40.75a5.6 5.6 0 1 0-9.51-5.91 5.6 5.6 0 1 0 9.51 5.91zM522.24 69.42a5.6 5.6 0 1 0-9.51-5.92 5.6 5.6 0 1 0 9.51 5.92zM508.66 60.97a5.6 5.6 0 1 0-9.52-5.92 5.6 5.6 0 1 0 9.52 5.92zM495.07 52.52a5.6 5.6 0 1 0-9.51-5.92 5.6 5.6 0 1 0 9.51 5.92zM481.48 44.07a5.6 5.6 0 1 0-9.51-5.92 5.6 5.6 0 1 0 9.51 5.92z" fill="#037b0b"></path><path d="M1380.76 277.33000000000004 L1318.37 267.26L1310.1347675150828 311.7252324849172z" stroke="#e73635" stroke-width="1.64" stroke-dasharray="4, 4"></path><rect width="117.6" height="117.6" clip-path="url(&quot;#SvgjsClipPath7138&quot;)" x="1121.04" y="85.14" fill="url(&quot;#SvgjsPattern7139&quot;)" transform="rotate(31.19, 1179.84, 143.94)"></rect><path d="M26.96 311.3L14.22 309.99 12.71 297.27-0.03 295.96-1.55 283.24-14.29 281.93-15.8 269.22M32.57 305.6L19.84 304.29 18.32 291.57 5.58 290.26 4.06 277.54-8.68 276.23-10.19 263.51M38.19 299.9L25.45 298.58 23.93 285.87 11.19 284.56 9.67 271.84-3.06 270.53-4.58 257.81" stroke="#e73635" stroke-width="1" stroke-dasharray="4, 4"></path><rect width="145.44" height="145.44" clip-path="url(&quot;#SvgjsClipPath7140&quot;)" x="-2.6" y="99.51" fill="url(&quot;#SvgjsPattern7141&quot;)" transform="rotate(169.07, 70.12, 172.23)"></rect><rect width="96.2" height="96.2" clip-path="url(&quot;#SvgjsClipPath7142&quot;)" x="284.46" y="107.41" fill="url(&quot;#SvgjsPattern7143&quot;)" transform="rotate(278.99, 332.56, 155.51)"></rect><path d="M368.93 237.9 L397.42 286.45L406.0613336303563 239.28866636964375z" fill="#e73635"></path><circle r="27.5" cx="843.27" cy="246.91" fill="#037b0b"></circle><rect width="84" height="84" clip-path="url(&quot;#SvgjsClipPath7144&quot;)" x="1155.78" y="99.9" fill="url(&quot;#SvgjsPattern7145&quot;)" transform="rotate(141.36, 1197.78, 141.9)"></rect><circle r="35.027164793640296" cx="392.83" cy="68.15" stroke="#e73635" stroke-width="1" stroke-dasharray="2, 2"></circle><path d="M1280.23 109.76a5.6 5.6 0 1 0-3.4-10.67 5.6 5.6 0 1 0 3.4 10.67zM1275.37 94.52a5.6 5.6 0 1 0-3.41-10.67 5.6 5.6 0 1 0 3.41 10.67zM1270.5 79.28a5.6 5.6 0 1 0-3.4-10.67 5.6 5.6 0 1 0 3.4 10.67zM1265.64 64.03a5.6 5.6 0 1 0-3.41-10.67 5.6 5.6 0 1 0 3.41 10.67zM1305.2 135.38a5.6 5.6 0 1 0-3.4-10.67 5.6 5.6 0 1 0 3.4 10.67zM1300.34 120.14a5.6 5.6 0 1 0-3.41-10.67 5.6 5.6 0 1 0 3.41 10.67zM1295.47 104.9a5.6 5.6 0 1 0-3.4-10.67 5.6 5.6 0 1 0 3.4 10.67zM1290.61 89.66a5.6 5.6 0 1 0-3.41-10.67 5.6 5.6 0 1 0 3.41 10.67z" stroke="#e73635" stroke-width="1.72" stroke-dasharray="3, 2"></path><path d="M515.63 272.24 L412.86 265.3L524.6243418582245 208.39065814177542z" stroke="#e73635" stroke-width="1"></path><path d="M40.709999999999994 239.07999999999998 L25.330000000000002 246.89L26.565755370980014 236.53075537098z" fill="#037b0b"></path><rect width="60" height="60" clip-path="url(&quot;#SvgjsClipPath7146&quot;)" x="1107.77" y="296.27" fill="url(&quot;#SvgjsPattern7147&quot;)" transform="rotate(275.34, 1137.77, 326.27)"></rect></g><defs><mask id="SvgjsMask7133"><rect width="1340" height="330" fill="#ffffff"></rect></mask><pattern x="0" y="0" width="8.2" height="8.2" patternUnits="userSpaceOnUse" id="SvgjsPattern7135"><path d="M0 8.2L4.1 0L8.2 8.2" stroke="#e73635" fill="none"></path></pattern><clipPath id="SvgjsClipPath7134"><circle r="20.5" cx="164.7" cy="15.77"></circle></clipPath><pattern x="0" y="0" width="10.02" height="10.02" patternUnits="userSpaceOnUse" id="SvgjsPattern7137"><path d="M0 10.02L5.01 0L10.02 10.02" stroke="#037b0b" fill="none"></path></pattern><clipPath id="SvgjsClipPath7136"><circle r="25.049999999999997" cx="1165.78" cy="256.56"></circle></clipPath><pattern x="0" y="0" width="11.76" height="11.76" patternUnits="userSpaceOnUse" id="SvgjsPattern7139"><path d="M5.88 1L5.88 10.76M1 5.88L10.76 5.88" stroke="#e73635" fill="none" stroke-width="3.98"></path></pattern><clipPath id="SvgjsClipPath7138"><circle r="29.4" cx="1179.84" cy="143.94"></circle></clipPath><pattern x="0" y="0" width="12.12" height="12.12" patternUnits="userSpaceOnUse" id="SvgjsPattern7141"><path d="M6.06 1L6.06 11.12M1 6.06L11.12 6.06" stroke="#037b0b" fill="none" stroke-width="3.08"></path></pattern><clipPath id="SvgjsClipPath7140"><circle r="36.36" cx="70.12" cy="172.23"></circle></clipPath><pattern x="0" y="0" width="9.62" height="9.62" patternUnits="userSpaceOnUse" id="SvgjsPattern7143"><path d="M4.81 1L4.81 8.62M1 4.81L8.62 4.81" stroke="#e73635" fill="none" stroke-width="1.04"></path></pattern><clipPath id="SvgjsClipPath7142"><circle r="24.05" cx="332.56" cy="155.51"></circle></clipPath><pattern x="0" y="0" width="84" height="6" patternUnits="userSpaceOnUse" id="SvgjsPattern7145"><rect width="84" height="3" x="0" y="0" fill="#037b0b"></rect><rect width="84" height="3" x="0" y="3" fill="rgba(0, 0, 0, 0)"></rect></pattern><clipPath id="SvgjsClipPath7144"><circle r="21" cx="1197.78" cy="141.9"></circle></clipPath><pattern x="0" y="0" width="6" height="6" patternUnits="userSpaceOnUse" id="SvgjsPattern7147"><path d="M3 1L3 5M1 3L5 3" stroke="#037b0b" fill="none" stroke-width="1.14"></path></pattern><clipPath id="SvgjsClipPath7146"><circle r="15" cx="1137.77" cy="326.27"></circle></clipPath></defs></svg>