<svg xmlns="http://www.w3.org/2000/svg" version="1.1" xmlns:xlink="http://www.w3.org/1999/xlink" xmlns:svgjs="http://svgjs.dev/svgjs" width="1200" height="360" preserveAspectRatio="none" viewBox="0 0 1200 360"><g mask="url(&quot;#SvgjsMask1051&quot;)" fill="none"><rect width="1200" height="360" x="0" y="0" fill="#0e2a47"></rect><path d="M77.24 260.49a26.9 26.9 0 1 0 49.62-20.78z" fill="#037b0b"></path><path d="M1037.44 43.49L1054.09 43.49L1054.09 53.24L1037.44 53.24z" fill="#037b0b"></path><path d="M959.19 312.4 a6.99 6.99 0 1 0 13.98 0 a6.99 6.99 0 1 0 -13.98 0z" stroke="#e73635"></path><path d="M986.17 237.25L991.56 237.25L991.56 242.64L986.17 242.64z" stroke="#e73635"></path><path d="M89.12 154.89a0.31 0.31 0 1 0-0.56 0.26z" stroke="#d3b714"></path><path d="M185.92 355.99L185.99 355.99L185.99 356.06L185.92 356.06z" stroke="#037b0b"></path><path d="M391.72 282.55L403.53 282.55L403.53 315.83L391.72 315.83z" stroke="#037b0b"></path><path d="M19.78 273.52L31.76 273.52L31.76 285.5L19.78 285.5z" stroke="#037b0b"></path><path d="M159.88 274.35a13.42 13.42 0 1 0 2.04-26.77z" stroke="#e73635"></path><path d="M20.37 62.78L28.33 62.78L28.33 70.74L20.37 70.74z" fill="#d3b714"></path><path d="M379.56 152.45L403.97 152.45L403.97 176.86L379.56 176.86z" stroke="#d3b714"></path><path d="M402.58 107.06L410.65 107.06L410.65 135.54L402.58 135.54z" fill="#d3b714"></path><path d="M270.32 318.59 a16.92 16.92 0 1 0 33.84 0 a16.92 16.92 0 1 0 -33.84 0z" fill="#037b0b"></path><path d="M421.01 37.56 a23.67 23.67 0 1 0 47.34 0 a23.67 23.67 0 1 0 -47.34 0z" stroke="#e73635"></path><path d="M1167.86 104.77 a30.51 30.51 0 1 0 61.02 0 a30.51 30.51 0 1 0 -61.02 0z" fill="#d3b714"></path><path d="M677.01 178.99L690.08 178.99L690.08 192.16L677.01 192.16z" stroke="#037b0b"></path><path d="M439.19 317.41L457.56 317.41L457.56 335.78L439.19 335.78z" fill="#e73635"></path><path d="M332.88 229.71L336.3 229.71L336.3 233.13L332.88 233.13z" fill="#037b0b"></path><path d="M1182.6 119.94a14.47 14.47 0 1 0-13.22-25.74z" stroke="#e73635"></path><path d="M210.96 312.49 a28.2 28.2 0 1 0 56.4 0 a28.2 28.2 0 1 0 -56.4 0z" stroke="#037b0b"></path><path d="M1020.27 289.73L1021.72 289.73L1021.72 291.18L1020.27 291.18z" stroke="#e73635"></path><path d="M38.11 160.31L48.64 160.31L48.64 170.84L38.11 170.84z" fill="#d3b714"></path><path d="M1149.7 75.65L1154.01 75.65L1154.01 79.96L1149.7 79.96z" fill="#037b0b"></path><path d="M842.69 35.87L873.51 35.87L873.51 66.69L842.69 66.69z" stroke="#d3b714"></path><path d="M461.61 319.11L471.31 319.11L471.31 328.81L461.61 328.81z" stroke="#e73635"></path><path d="M923.26 84.87 a29.93 29.93 0 1 0 59.86 0 a29.93 29.93 0 1 0 -59.86 0z" fill="#d3b714"></path><path d="M910 122.28L945.75 122.28L945.75 138.36L910 138.36z" stroke="#d3b714"></path><path d="M718.11 306.83L732.62 306.83L732.62 321.34L718.11 321.34z" fill="#037b0b"></path><path d="M436.63 31.82 a21.64 21.64 0 1 0 43.28 0 a21.64 21.64 0 1 0 -43.28 0z" fill="#e73635"></path><path d="M716.29 162.57a4.77 4.77 0 1 0-9.37 1.8z" fill="#d3b714"></path><path d="M-3.83 106.64a14.55 14.55 0 1 0 26.52 11.98z" fill="#e73635"></path><path d="M400.9 88.17L407.55 88.17L407.55 118.86L400.9 118.86z" stroke="#037b0b"></path><path d="M1185.32 18.54L1188.39 18.54L1188.39 34.58L1185.32 34.58z" fill="#037b0b"></path><path d="M419.41 224.39L426.69 224.39L426.69 246.82L419.41 246.82z" stroke="#e73635"></path><path d="M621.65 214.35 a33.45 33.45 0 1 0 66.9 0 a33.45 33.45 0 1 0 -66.9 0z" fill="#037b0b"></path><path d="M1136.62 170.58a13.46 13.46 0 1 0-10.84 24.65z" fill="#d3b714"></path><path d="M515.99 107.08L533.99 107.08L533.99 111.59L515.99 111.59z" stroke="#037b0b"></path><path d="M1178.73 240.64L1186.11 240.64L1186.11 274.74L1178.73 274.74z" stroke="#037b0b"></path><path d="M678.4 101.65L682.99 101.65L682.99 135.75L678.4 135.75z" fill="#037b0b"></path><path d="M337.55 88.15L364.46 88.15L364.46 115.06L337.55 115.06z" fill="#e73635"></path><path d="M1082.53 244.62L1107.11 244.62L1107.11 269.2L1082.53 269.2z" fill="#d3b714"></path><path d="M228.47 332.94L236.42 332.94L236.42 340.89L228.47 340.89z" fill="#d3b714"></path></g><defs><mask id="SvgjsMask1051"><rect width="1200" height="360" fill="#ffffff"></rect></mask></defs></svg>